<svg data-v-423bf9ae="" xmlns="http://www.w3.org/2000/svg" viewBox="0 0 305 101" class="iconLeft"><!----><!----><!----><g data-v-423bf9ae="" id="827e4424-fdbd-44ce-8b70-673c44d26fa7" fill="#342103" transform="matrix(5.143746712831398,0,0,5.143746712831398,122.32715670897628,3.775944807290877)"><path d="M0.70 8.33C0.70 11.12 2.95 13.41 5.71 13.41C6.54 13.41 7.03 13.23 7.63 12.96L8.86 14.80C8.95 14.92 9.03 14.95 9.16 14.87L9.70 14.48C9.83 14.39 9.86 14.31 9.76 14.17L8.53 12.47C9.72 11.56 10.72 10.26 10.72 8.33C10.72 5.54 8.47 3.25 5.71 3.25C2.95 3.25 0.70 5.54 0.70 8.33ZM1.82 8.33C1.82 6.22 3.53 4.23 5.71 4.23C7.92 4.24 9.60 6.22 9.60 8.33C9.60 10.43 7.92 12.43 5.71 12.43C3.53 12.43 1.82 10.43 1.82 8.33ZM17.46 12.26L17.46 3.65C17.46 3.49 17.40 3.43 17.23 3.43L16.58 3.43C16.41 3.43 16.35 3.49 16.35 3.65L16.35 13.01C16.35 13.17 16.41 13.23 16.58 13.23L22.27 13.23C22.44 13.23 22.48 13.17 22.48 13.01L22.48 12.49C22.48 12.32 22.44 12.26 22.27 12.26ZM31.50 13.41C33.78 13.41 35.46 11.98 35.46 9.20L35.46 3.65C35.46 3.49 35.42 3.43 35.25 3.43L34.58 3.43C34.41 3.43 34.36 3.49 34.36 3.65L34.36 9.13C34.36 11.45 33.18 12.43 31.50 12.43C29.82 12.43 28.64 11.45 28.64 9.13L28.64 3.65C28.64 3.49 28.59 3.43 28.42 3.43L27.76 3.43C27.59 3.43 27.54 3.47 27.54 3.65L27.54 9.20C27.54 11.98 29.22 13.41 31.50 13.41Z"></path></g><defs data-v-423bf9ae=""><linearGradient data-v-423bf9ae="" gradientTransform="rotate(25)" id="1424d335-13a7-41d1-b7b8-58b64053a6e6" x1="0%" y1="0%" x2="100%" y2="0%"><stop data-v-423bf9ae="" offset="0%" style="stop-color: rgb(229, 101, 0); stop-opacity: 1;"></stop><stop data-v-423bf9ae="" offset="100%" style="stop-color: rgb(235, 197, 29); stop-opacity: 1;"></stop></linearGradient></defs><g data-v-423bf9ae="" id="57ded259-b7fc-428e-920f-2e9eac56ac8d" transform="matrix(1.0592777676052518,0,0,1.0592777676052518,0.036111619737411615,-1.6312396964221634)" stroke="none" fill="url(#1424d335-13a7-41d1-b7b8-58b64053a6e6)"><path d="M48.131 2.33v.051l.103-.051h3.021l.358.051.051-.051.308.051c4.232 0 9.387.99 15.463 2.97 3.414 1.263 6.793 2.902 10.139 4.916 2.082 1.229 4.506 3.021 7.271 5.376 3.346 3.175 5.564 5.632 6.656 7.374a43.796 43.796 0 0 1 5.991 11.213c1.639 4.984 2.458 9.336 2.458 13.057l.05.204h-.051l.051.051v3.225l-.051.052.051.052c0 2.525-.512 6.16-1.536 10.906-.956 3.345-1.997 6.212-3.123 8.602-1.229 2.424-2.901 5.035-5.019 7.834-1.365 1.673-3.141 3.567-5.325 5.684-3.516 2.97-6.485 5.172-8.909 6.605-1.058.546-2.014.819-2.867.819-2.287 0-3.823-1.127-4.608-3.38-.137-.614-.205-1.144-.205-1.587 0-1.946 1.707-3.806 5.121-5.581 1.058-.512 2.747-1.81 5.068-3.892 2.97-2.936 5.035-5.376 6.196-7.322a36.877 36.877 0 0 0 3.328-6.4c1.229-3.481 1.843-5.752 1.843-6.81l.513-3.277-.103-.051.103-.308v-.461l.051-.052-.051-.051.051-.205.051-2.304c0-10.172-3.771-19.014-11.315-26.523-2.799-2.492-4.864-4.113-6.195-4.864C66.105 13.918 58.749 11.75 51 11.75h-2.355l-.307.051v-.051l-.051.051h-.052c-3.447 0-7.612.802-12.493 2.407-2.595.99-5.206 2.287-7.834 3.892-1.673.99-3.994 2.867-6.964 5.632l-1.69 1.843c-6.52 7.271-9.78 15.6-9.78 24.987l.051.563h-.052l.051.051v.051c0 6.691 2.799 14.371 8.397 23.042 4.54 6.759 7.886 11.862 10.036 15.31a47.732 47.732 0 0 1 2.201 4.199h-.051a78.349 78.349 0 0 1-12.801-7.322c-3.004-2.355-5.444-4.729-7.322-7.117-2.15-3.004-3.738-5.564-4.762-7.681-1.229-2.39-2.373-5.376-3.431-8.961-.614-2.253-1.109-4.693-1.485-7.321L.05 52.56h.051l-.051-.052L0 49.897v-1.434l.051-.051L0 48.361v-.051l.051-.051L0 48.208l.051-.307c0-4.677 1.229-10.053 3.687-16.129 1.536-3.379 3.533-6.725 5.991-10.036 1.297-1.775 3.431-4.079 6.4-6.913 3.072-2.594 6.025-4.676 8.858-6.247 2.526-1.4 5.718-2.748 9.575-4.045 3.141-1.024 7.254-1.741 12.34-2.15l1.229-.051zm.563 13.364v.103l.051-.103h2.919l.051.103.052-.103c2.287.068 5.223.546 8.807 1.434 3.106.99 5.684 2.065 7.731 3.226 1.912 1.058 4.097 2.663 6.555 4.813 3.072 2.97 5.052 5.206 5.939 6.708a31.03 31.03 0 0 1 3.892 7.732c.751 1.877 1.28 4.591 1.587 8.141v.051h-.051l.051.051v1.895c0 9.25-3.823 17.512-11.47 24.782-3.516 3.106-5.769 4.711-6.759 4.813a4.857 4.857 0 0 1-1.997.409h-.102c-2.151 0-3.653-1.075-4.506-3.226l-.257-1.536c0-2.253 1.502-4.045 4.506-5.376.956-.479 2.065-1.332 3.328-2.561 2.015-2.117 3.448-4.062 4.302-5.838.785-1.365 1.536-3.276 2.253-5.734.409-2.014.614-3.465.614-4.352h.051l-.051-.104.051-.256v-2.765l-.051-.256h.051l-.051-.205c0-2.492-.87-5.496-2.611-9.012-.854-1.57-2.1-3.243-3.738-5.018-1.74-1.775-3.208-3.004-4.403-3.687-4.847-3.106-9.677-4.66-14.49-4.66h-.153l-.052-.103-.051.103h-.154l-.051-.103-.051.103h-.563l-.052-.103-.051.103h-.922l-.307.051v-.051c-2.15.205-3.823.478-5.019.819-5.734 1.638-10.206 4.335-13.415 8.09-1.844 2.014-3.277 4.147-4.301 6.4-1.331 3.106-1.997 6.025-1.997 8.756v1.075l-.051.051.051.051v.102c0 4.506 1.707 9.268 5.12 14.286C37.6 78.583 44.273 89.524 48.95 97.614l-.051.051h-.052c-5.974-.546-9.968-1.109-11.981-1.689-7.953-12.562-12.408-19.543-13.364-20.941-4.233-6.418-6.861-11.129-7.885-14.133a32.963 32.963 0 0 1-1.69-10.497c0-7.851 2.577-15.054 7.732-21.608.785-1.024 2.406-2.646 4.864-4.864 4.643-3.687 9.711-6.127 15.207-7.322 1.981-.439 4.301-.747 6.964-.917zm.82 13.62v.103l.051-.103h1.588l.103.103.051-.103h.051l.052.103.051-.103c1.502 0 3.533.358 6.094 1.075 5.188 1.843 9.131 5.257 11.828 10.241 1.502 3.106 2.253 6.145 2.253 9.114v.307c0 5.667-2.441 10.804-7.322 15.412-2.048 1.639-3.909 2.458-5.581 2.458-2.083 0-3.636-1.109-4.66-3.328a5.537 5.537 0 0 1-.307-1.485c0-1.706 1.263-3.43 3.789-5.171 1.809-1.229 2.97-2.646 3.481-4.25.41-1.161.614-2.304.614-3.431v-.205c0-3.414-1.502-6.435-4.506-9.063-1.979-1.468-4.438-2.202-7.373-2.202l-.409.051v-.051l-.052.051h-.103c-2.696 0-5.291 1.16-7.782 3.481-2.015 2.321-3.021 4.984-3.021 7.988 0 2.56 1.758 6.332 5.274 11.316 9.08 14.303 16.061 25.584 20.941 33.846-4.369 1.16-7.731 1.74-10.087 1.74-4.506-6.554-9.797-14.968-15.873-25.242a202.147 202.147 0 0 0-6.963-10.805c-2.287-3.55-3.432-7.254-3.432-11.111 0-5.359 1.963-10.104 5.889-14.234 2.116-1.946 4.045-3.329 5.786-4.147 3.106-1.297 5.172-1.946 6.195-1.946.581-.136 1.707-.273 3.38-.409z"></path></g><!----></svg>