<svg data-v-fde0c5aa="" xmlns="http://www.w3.org/2000/svg" viewBox="0 0 300 300" class="font"><!----><defs data-v-fde0c5aa=""><!----></defs><rect data-v-fde0c5aa="" fill="#FDF7EC" x="0" y="0" width="300px" height="300px" class="logo-background-square"></rect><defs data-v-fde0c5aa=""><linearGradient data-v-fde0c5aa="" gradientTransform="rotate(25)" id="d200962c-7f99-44f0-9aef-35ce02f5eefe" x1="0%" y1="0%" x2="100%" y2="0%"><stop data-v-fde0c5aa="" offset="0%" stop-color="#E56500" stop-opacity="1"></stop><stop data-v-fde0c5aa="" offset="100%" stop-color="#EBC51D" stop-opacity="1"></stop></linearGradient></defs><g data-v-fde0c5aa="" id="6282ea0d-5f3f-4969-9f46-7d23eb0bdd02" fill="url(#d200962c-7f99-44f0-9aef-35ce02f5eefe)" transform="matrix(6.329114229666516,0,0,6.329114229666516,35.56962011468236,92.51693073789045)"><path d="M0.70 8.33C0.70 11.12 2.95 13.41 5.71 13.41C6.54 13.41 7.03 13.23 7.63 12.96L8.86 14.80C8.95 14.92 9.03 14.95 9.16 14.87L9.70 14.48C9.83 14.39 9.86 14.31 9.76 14.17L8.53 12.47C9.72 11.56 10.72 10.26 10.72 8.33C10.72 5.54 8.47 3.25 5.71 3.25C2.95 3.25 0.70 5.54 0.70 8.33ZM1.82 8.33C1.82 6.22 3.53 4.23 5.71 4.23C7.92 4.24 9.60 6.22 9.60 8.33C9.60 10.43 7.92 12.43 5.71 12.43C3.53 12.43 1.82 10.43 1.82 8.33ZM17.46 12.26L17.46 3.65C17.46 3.49 17.40 3.43 17.23 3.43L16.58 3.43C16.41 3.43 16.35 3.49 16.35 3.65L16.35 13.01C16.35 13.17 16.41 13.23 16.58 13.23L22.27 13.23C22.44 13.23 22.48 13.17 22.48 13.01L22.48 12.49C22.48 12.32 22.44 12.26 22.27 12.26ZM31.50 13.41C33.78 13.41 35.46 11.98 35.46 9.20L35.46 3.65C35.46 3.49 35.42 3.43 35.25 3.43L34.58 3.43C34.41 3.43 34.36 3.49 34.36 3.65L34.36 9.13C34.36 11.45 33.18 12.43 31.50 12.43C29.82 12.43 28.64 11.45 28.64 9.13L28.64 3.65C28.64 3.49 28.59 3.43 28.42 3.43L27.76 3.43C27.59 3.43 27.54 3.47 27.54 3.65L27.54 9.20C27.54 11.98 29.22 13.41 31.50 13.41Z"></path></g><!----><!----></svg>