<?xml version="1.0" encoding="UTF-8" standalone="no"?>
<svg
   xmlns:dc="http://purl.org/dc/elements/1.1/"
   xmlns:cc="http://creativecommons.org/ns#"
   xmlns:rdf="http://www.w3.org/1999/02/22-rdf-syntax-ns#"
   xmlns:svg="http://www.w3.org/2000/svg"
   xmlns="http://www.w3.org/2000/svg"
   xmlns:xlink="http://www.w3.org/1999/xlink"
   xmlns:sodipodi="http://sodipodi.sourceforge.net/DTD/sodipodi-0.dtd"
   xmlns:inkscape="http://www.inkscape.org/namespaces/inkscape"
   data-v-fde0c5aa=""
   viewBox="100 20 220 70"
   preserveAspectRatio="none"
   class="iconLeft"
   version="1.1"
   id="svg21"
   sodipodi:docname="logo-1.svg"
   width="150"
   height="50"
   inkscape:version="0.92.4 (5da689c313, 2019-01-14)">
  <metadata
     id="metadata25">
    <rdf:RDF>
      <cc:Work
         rdf:about="">
        <dc:format>image/svg+xml</dc:format>
        <dc:type
           rdf:resource="http://purl.org/dc/dcmitype/StillImage" />
        <dc:title></dc:title>
      </cc:Work>
    </rdf:RDF>
  </metadata>
  <sodipodi:namedview
     pagecolor="#ffffff"
     bordercolor="#666666"
     borderopacity="1"
     objecttolerance="10"
     gridtolerance="10"
     guidetolerance="10"
     inkscape:pageopacity="0"
     inkscape:pageshadow="2"
     inkscape:window-width="1920"
     inkscape:window-height="1017"
     id="namedview23"
     showgrid="false"
     inkscape:pagecheckerboard="false"
     showborder="true"
     fit-margin-top="10"
     fit-margin-left="10"
     fit-margin-bottom="10"
     fit-margin-right="10"
     viewbox-width="150"
     viewbox-x="100"
     viewbox-y="20"
     scale-x="1.4"
     inkscape:zoom="0.78666667"
     inkscape:cx="210"
     inkscape:cy="-5.9041578"
     inkscape:window-x="-8"
     inkscape:window-y="-8"
     inkscape:window-maximized="1"
     inkscape:current-layer="svg21" />
  <!---->
  <defs
     data-v-fde0c5aa=""
     id="defs2">
    <!---->
    <linearGradient
       inkscape:collect="always"
       xlink:href="#894350d6-daa5-4632-9e61-ae3a5f796132"
       id="linearGradient27"
       gradientTransform="scale(1.0241742,0.97639644)"
       x1="0"
       y1="2.3863258"
       x2="97.639641"
       y2="2.3863258"
       gradientUnits="userSpaceOnUse" />
    <linearGradient
       inkscape:collect="always"
       xlink:href="#894350d6-daa5-4632-9e61-ae3a5f796132"
       id="linearGradient29"
       gradientTransform="scale(1.0241742,0.97639644)"
       x1="0"
       y1="2.3863258"
       x2="97.639641"
       y2="2.3863258"
       gradientUnits="userSpaceOnUse" />
  </defs>
  <rect
     data-v-fde0c5aa=""
     x="60"
     y="-94.095818"
     width="100"
     height="50"
     class="logo-background-square"
     id="rect4"
     style="fill:none" />
  <defs
     data-v-fde0c5aa=""
     id="defs6">
    <!---->
  </defs>
  <g
     data-v-fde0c5aa=""
     id="3b0d6a40-4486-4f0b-b972-fae079a389b5"
     transform="matrix(3.8973402,0,0,3.8973402,181.80032,20.50727)"
     style="fill:#ffffff">
    <path
       d="m 0.7,8.33 c 0,2.79 2.25,5.08 5.01,5.08 0.83,0 1.32,-0.18 1.92,-0.45 l 1.23,1.84 c 0.09,0.12 0.17,0.15 0.3,0.07 L 9.7,14.48 C 9.83,14.39 9.86,14.31 9.76,14.17 L 8.53,12.47 C 9.72,11.56 10.72,10.26 10.72,8.33 10.72,5.54 8.47,3.25 5.71,3.25 2.95,3.25 0.7,5.54 0.7,8.33 Z m 1.12,0 c 0,-2.11 1.71,-4.1 3.89,-4.1 2.21,0.01 3.89,1.99 3.89,4.1 0,2.1 -1.68,4.1 -3.89,4.1 -2.18,0 -3.89,-2 -3.89,-4.1 z m 15.64,3.93 V 3.65 c 0,-0.16 -0.06,-0.22 -0.23,-0.22 h -0.65 c -0.17,0 -0.23,0.06 -0.23,0.22 v 9.36 c 0,0.16 0.06,0.22 0.23,0.22 h 5.69 c 0.17,0 0.21,-0.06 0.21,-0.22 v -0.52 c 0,-0.17 -0.04,-0.23 -0.21,-0.23 z m 14.04,1.15 c 2.28,0 3.96,-1.43 3.96,-4.21 V 3.65 c 0,-0.16 -0.04,-0.22 -0.21,-0.22 h -0.67 c -0.17,0 -0.22,0.06 -0.22,0.22 v 5.48 c 0,2.32 -1.18,3.3 -2.86,3.3 -1.68,0 -2.86,-0.98 -2.86,-3.3 V 3.65 c 0,-0.16 -0.05,-0.22 -0.22,-0.22 h -0.66 c -0.17,0 -0.22,0.04 -0.22,0.22 V 9.2 c 0,2.78 1.68,4.21 3.96,4.21 z"
       id="path8"
       inkscape:connector-curvature="0" />
  </g>
  <defs
     data-v-fde0c5aa=""
     id="defs16">
    <linearGradient
       data-v-fde0c5aa=""
       gradientTransform="rotate(25)"
       id="894350d6-daa5-4632-9e61-ae3a5f796132"
       x1="0"
       y1="0"
       x2="1"
       y2="0">
      <stop
         data-v-fde0c5aa=""
         offset="0%"
         stop-color="#E56500"
         stop-opacity="1"
         id="stop11" />
      <stop
         data-v-fde0c5aa=""
         offset="100%"
         stop-color="#EBC51D"
         stop-opacity="1"
         id="stop13" />
    </linearGradient>
  </defs>
  <g
     data-v-fde0c5aa=""
     id="cce9266e-7f99-4dd0-bf2f-e693077bc974"
     transform="matrix(0.71528461,0,0,0.71528461,100,20.14174)"
     style="fill:url(#linearGradient29);stroke:none">
    <path
       d="M 48.131,2.33 V 2.381 L 48.234,2.33 h 3.021 l 0.358,0.051 0.051,-0.051 0.308,0.051 c 4.232,0 9.387,0.99 15.463,2.97 3.414,1.263 6.793,2.902 10.139,4.916 2.082,1.229 4.506,3.021 7.271,5.376 3.346,3.175 5.564,5.632 6.656,7.374 a 43.796,43.796 0 0 1 5.991,11.213 c 1.639,4.984 2.458,9.336 2.458,13.057 L 100,47.491 H 99.949 L 100,47.542 v 3.225 l -0.051,0.052 0.051,0.052 c 0,2.525 -0.512,6.16 -1.536,10.906 -0.956,3.345 -1.997,6.212 -3.123,8.602 -1.229,2.424 -2.901,5.035 -5.019,7.834 -1.365,1.673 -3.141,3.567 -5.325,5.684 -3.516,2.97 -6.485,5.172 -8.909,6.605 -1.058,0.546 -2.014,0.819 -2.867,0.819 -2.287,0 -3.823,-1.127 -4.608,-3.38 -0.137,-0.614 -0.205,-1.144 -0.205,-1.587 0,-1.946 1.707,-3.806 5.121,-5.581 1.058,-0.512 2.747,-1.81 5.068,-3.892 2.97,-2.936 5.035,-5.376 6.196,-7.322 a 36.877,36.877 0 0 0 3.328,-6.4 c 1.229,-3.481 1.843,-5.752 1.843,-6.81 l 0.513,-3.277 -0.103,-0.051 0.103,-0.308 V 52.252 L 90.528,52.2 90.477,52.149 90.528,51.944 90.579,49.64 C 90.579,39.468 86.808,30.626 79.264,23.117 76.465,20.625 74.4,19.004 73.069,18.253 66.105,13.918 58.749,11.75 51,11.75 h -2.355 l -0.307,0.051 V 11.75 l -0.051,0.051 h -0.052 c -3.447,0 -7.612,0.802 -12.493,2.407 -2.595,0.99 -5.206,2.287 -7.834,3.892 -1.673,0.99 -3.994,2.867 -6.964,5.632 l -1.69,1.843 c -6.52,7.271 -9.78,15.6 -9.78,24.987 l 0.051,0.563 H 9.473 l 0.051,0.051 v 0.051 c 0,6.691 2.799,14.371 8.397,23.042 4.54,6.759 7.886,11.862 10.036,15.31 a 47.732,47.732 0 0 1 2.201,4.199 H 30.107 A 78.349,78.349 0 0 1 17.306,86.456 C 14.302,84.101 11.862,81.727 9.984,79.339 7.834,76.335 6.246,73.775 5.222,71.658 3.993,69.268 2.849,66.282 1.791,62.697 1.177,60.444 0.682,58.004 0.306,55.376 L 0.05,52.56 H 0.101 L 0.05,52.508 0,49.897 V 48.463 L 0.051,48.412 0,48.361 V 48.31 L 0.051,48.259 0,48.208 0.051,47.901 c 0,-4.677 1.229,-10.053 3.687,-16.129 1.536,-3.379 3.533,-6.725 5.991,-10.036 1.297,-1.775 3.431,-4.079 6.4,-6.913 3.072,-2.594 6.025,-4.676 8.858,-6.247 2.526,-1.4 5.718,-2.748 9.575,-4.045 3.141,-1.024 7.254,-1.741 12.34,-2.15 z m 0.563,13.364 v 0.103 l 0.051,-0.103 h 2.919 l 0.051,0.103 0.052,-0.103 c 2.287,0.068 5.223,0.546 8.807,1.434 3.106,0.99 5.684,2.065 7.731,3.226 1.912,1.058 4.097,2.663 6.555,4.813 3.072,2.97 5.052,5.206 5.939,6.708 a 31.03,31.03 0 0 1 3.892,7.732 c 0.751,1.877 1.28,4.591 1.587,8.141 v 0.051 h -0.051 l 0.051,0.051 v 1.895 c 0,9.25 -3.823,17.512 -11.47,24.782 -3.516,3.106 -5.769,4.711 -6.759,4.813 a 4.857,4.857 0 0 1 -1.997,0.409 H 65.95 c -2.151,0 -3.653,-1.075 -4.506,-3.226 l -0.257,-1.536 c 0,-2.253 1.502,-4.045 4.506,-5.376 0.956,-0.479 2.065,-1.332 3.328,-2.561 2.015,-2.117 3.448,-4.062 4.302,-5.838 0.785,-1.365 1.536,-3.276 2.253,-5.734 0.409,-2.014 0.614,-3.465 0.614,-4.352 h 0.051 L 76.19,51.022 76.241,50.766 V 48.001 L 76.19,47.745 h 0.051 L 76.19,47.54 c 0,-2.492 -0.87,-5.496 -2.611,-9.012 -0.854,-1.57 -2.1,-3.243 -3.738,-5.018 -1.74,-1.775 -3.208,-3.004 -4.403,-3.687 -4.847,-3.106 -9.677,-4.66 -14.49,-4.66 H 50.795 L 50.743,25.06 50.692,25.163 H 50.538 L 50.487,25.06 50.436,25.163 H 49.873 L 49.821,25.06 49.77,25.163 h -0.922 l -0.307,0.051 v -0.051 c -2.15,0.205 -3.823,0.478 -5.019,0.819 -5.734,1.638 -10.206,4.335 -13.415,8.09 -1.844,2.014 -3.277,4.147 -4.301,6.4 -1.331,3.106 -1.997,6.025 -1.997,8.756 v 1.075 l -0.051,0.051 0.051,0.051 v 0.102 c 0,4.506 1.707,9.268 5.12,14.286 8.671,13.79 15.344,24.731 20.021,32.821 l -0.051,0.051 H 48.847 C 42.873,97.119 38.879,96.556 36.866,95.976 28.913,83.414 24.458,76.433 23.502,75.035 19.269,68.617 16.641,63.906 15.617,60.902 a 32.963,32.963 0 0 1 -1.69,-10.497 c 0,-7.851 2.577,-15.054 7.732,-21.608 0.785,-1.024 2.406,-2.646 4.864,-4.864 4.643,-3.687 9.711,-6.127 15.207,-7.322 1.981,-0.439 4.301,-0.747 6.964,-0.917 z m 0.82,13.62 v 0.103 l 0.051,-0.103 h 1.588 l 0.103,0.103 0.051,-0.103 h 0.051 l 0.052,0.103 0.051,-0.103 c 1.502,0 3.533,0.358 6.094,1.075 5.188,1.843 9.131,5.257 11.828,10.241 1.502,3.106 2.253,6.145 2.253,9.114 v 0.307 c 0,5.667 -2.441,10.804 -7.322,15.412 -2.048,1.639 -3.909,2.458 -5.581,2.458 -2.083,0 -3.636,-1.109 -4.66,-3.328 a 5.537,5.537 0 0 1 -0.307,-1.485 c 0,-1.706 1.263,-3.43 3.789,-5.171 1.809,-1.229 2.97,-2.646 3.481,-4.25 0.41,-1.161 0.614,-2.304 0.614,-3.431 v -0.205 c 0,-3.414 -1.502,-6.435 -4.506,-9.063 -1.979,-1.468 -4.438,-2.202 -7.373,-2.202 l -0.409,0.051 v -0.051 l -0.052,0.051 h -0.103 c -2.696,0 -5.291,1.16 -7.782,3.481 -2.015,2.321 -3.021,4.984 -3.021,7.988 0,2.56 1.758,6.332 5.274,11.316 9.08,14.303 16.061,25.584 20.941,33.846 -4.369,1.16 -7.731,1.74 -10.087,1.74 C 50.026,90.654 44.735,82.24 38.659,71.966 A 202.147,202.147 0 0 0 31.696,61.161 c -2.287,-3.55 -3.432,-7.254 -3.432,-11.111 0,-5.359 1.963,-10.104 5.889,-14.234 2.116,-1.946 4.045,-3.329 5.786,-4.147 3.106,-1.297 5.172,-1.946 6.195,-1.946 0.581,-0.136 1.707,-0.273 3.38,-0.409 z"
       id="path18"
       inkscape:connector-curvature="0"
       style="fill:url(#linearGradient27)" />
  </g>
  <!---->
</svg>
